<?xml version="1.0" encoding="utf-8"?>
<!-- Generator: Adobe Illustrator 19.0.0, SVG Export Plug-In . SVG Version: 6.00 Build 0)  -->
<svg version="1.1" xmlns="http://www.w3.org/2000/svg" xmlns:xlink="http://www.w3.org/1999/xlink" x="0px" y="0px"
	 viewBox="0 0 515 600" style="enable-background:new 0 0 515 600;" xml:space="preserve">
<style type="text/css">
	.st0{display:none;}
	.st1{fill:#043540;}
	.st2{fill:#FFFFFF;stroke:#FFFFFF;stroke-width:3;stroke-linecap:round;stroke-linejoin:round;stroke-miterlimit:10;}
	.st3{fill:#FFDA57;}
	.st4{fill:#69C7B9;}
	.st5{fill:#F5897B;}
	.st6{fill:none;}
	.st7{font-family:'EvelethW01-CleanRegular';}
	.st8{font-size:6px;}
	.st9{font-size:4px;}
	.st10{fill:#0BAA4B;}
	.st11{fill:#FFFFFF;}
</style>
<g id="Layer_1" class="st0">
	
		<image style="display:inline;overflow:visible;" width="1758" height="2048" xlink:href="D:\School\Tinderbox\mokcup\map.png"  transform="matrix(0.24 0 0 0.24 30.3333 38.6667)">
	</image>
</g>
<g id="Layer_2" class="st0">
	
		<image style="display:inline;overflow:visible;" width="1920" height="1080" xlink:href="9A8E3562.jpg"  transform="matrix(0.5167 0 0 0.5167 -281.6251 1.3589)">
	</image>
</g>
<g id="Layer_4">
	<rect y="-1.2" class="st1" width="515" height="601.1"/>
</g>
<g id="Layer_3">
	<path class="st2" d="M322.4,90c0,0,0.2-3.3-0.8-5.2c-1-1.9-4.3-7.8-4.3-8.8c0-1-1-1.8,8.5-5.8l24-12.2c0,0,1.8-0.9,3,1.3
		c0,0,7.8,14.5,9.1,16c1.3,1.4,8.1,4,8.6,4.2c0,0,10.5,1.3,14.5,6.5c0,0,7.7,14.1,7.9,14.2s2.9,3.6,14.2,0c0,0,5.8,2,2.3,11.9
		c0,0-3.8,5.3-5.5,5.9c0,0-1.7,0.5-1.9,0.4s-4.9-6.5-8.7-6.9c-3.8-0.4-16.2,4.9-21.5,6.5c0,0-7.3-2.4-10.7-1.8
		c-3.3,0.6-9.2,1.8-10.7,3s-3.4,3-3.2,4.5c0.2,1.4,10.8,22.3,10.8,22.3s0.9,5.1-2.1,6.6s-8.8,5.5-9.6,7.2c0,0,11.3,43.6,12.3,45.8
		c1,2.2,15.8,36.8,16.3,37c0.5,0.2,48.5,16.8,48.5,16.8s1,1.6-1.3,3.8c0,0-23.4,36.8-26,42.6s-9.9,21.3-9.8,21.8
		c0,0.5,42.3,20.9,42.3,20.9L416,378l-45.4-22.3l-52.8,129.7c0,0-13.7,24.6-21.7,31c-8,6.3-12.7,9.9-26.5,12.5
		C256,531.5,201,528,201,528s-39.2-1.9-40.8-3.4c-1.7-1.5-4-2.3-4-13.2s-1.8-21,12.8-31.3c14.6-10.2,36.3-9.1,36.3-9.1
		s16.3,6,33,18.5c0,0,18.5,13.7,26,13.8c0,0,1.8,2.6,21-8.5c19.2-11.1,25.4-17.7,25.4-17.7l47.2-127.6l-39.2-19.4c0,0-7-7-29.2-5.5
		c0,0-14.6-0.1-16.2,5.5c0,0-23.5,41.1-25.1,42.5s-9.2,13.1-13.8,15.4c-4.6,2.3-21.9,15-37.8,17.3c-15.9,2.3-20.5,2.4-24.4,1.1
		c-3.9-1.3-48.8-20.5-52.1-23.4c0,0-14.6-7.4-18.8-12.6c-4.2-5.2-5.1-14.5-3.5-30.5s4.1-26.9,4.1-26.9s10.1-23.9,20.8-30
		c10.7-6.1,13.9-4.9,21.7-9.6s8-8.6,8-8.6l9.3-23.7l-82.6-5.2v-18.9l98.8,4c0,0,26-26.7,43.2-26.8c17.2,0,28.9,28.4,28.9,28.4
		s8.4,12.4,20.6,9.5s35.2-14.8,37.5-18.2c2.3-3.3,3.3-9.9,9.6-12.6s28.7-10.5,28.7-10.5l-9.3-34.5c0,0,0.4-13.5-2.8-24.6
		c0,0-12.1-22.6-11.8-27.5C322.7,104.4,320.5,94,322.4,90z"/>
	<g>
		<circle class="st3" cx="327.8" cy="91.2" r="4.2"/>
		<path class="st1" d="M328.3,89.4c0-0.1-0.1-0.6-0.1-1.1c0,0,0,0,0,0c0,0,0.1,0,0.1-0.1v-0.4c0,0,0-0.1-0.1-0.1h-0.8
			c0,0-0.1,0-0.1,0.1v0.4c0,0,0,0.1,0.1,0.1c0,0,0,0,0,0c0,0.5,0,1-0.1,1.1c-0.2,0.6-0.7,0.5-0.7,1.3v2.6c0,1,0.5,0.9,1.2,0.9
			c0.7,0,1.2,0.1,1.2-0.9v-2.6C329,90,328.5,90,328.3,89.4z"/>
	</g>
</g>
<g id="colours_on_map">
	<circle class="st3" cx="417" cy="276.8" r="22"/>
	<circle class="st4" cx="337.6" cy="223.2" r="13.1"/>
	<circle class="st4" cx="182.2" cy="387.5" r="12.6"/>
	<circle class="st5" cx="134.5" cy="374.9" r="12.6"/>
	<circle class="st5" cx="112.1" cy="337.5" r="8.3"/>
	<circle class="st4" cx="109" cy="362.7" r="15.5"/>
	<circle class="st5" cx="127" cy="350.2" r="9.2"/>
	<circle class="st5" cx="328.8" cy="317.7" r="20.7"/>
	<circle class="st5" cx="385.7" cy="319.3" r="14.3"/>
	<circle class="st5" cx="280.9" cy="243" r="6.1"/>
	<circle class="st3" cx="220.7" cy="494.4" r="13.5"/>
	<circle class="st3" cx="188.7" cy="486.4" r="13.5"/>
	<circle class="st3" cx="379" cy="106.5" r="19.5"/>
	<circle class="st5" cx="408" cy="250.2" r="17.4"/>
	<circle class="st5" cx="222" cy="213.2" r="13.5"/>
	<circle class="st3" cx="134.5" cy="226.7" r="19.5"/>
</g>
<g id="Layer_6">
	<rect x="206.1" y="208.1" class="st6" width="31.8" height="12.7"/>
	<text transform="matrix(1 0 0 1 215.1187 212.7638)"><tspan x="0" y="0" class="st1 st7 st8">Red</tspan><tspan x="-4.5" y="7.2" class="st1 st7 st8">stage</tspan></text>
	<rect x="114.1" y="222.6" class="st6" width="40.8" height="12.7"/>
	<text transform="matrix(1 0 0 1 116.0718 227.2709)"><tspan x="0" y="0" class="st1 st7 st8">resource</tspan><tspan x="10.4" y="7.2" class="st1 st7 st8">city</tspan></text>
	<rect x="161.8" y="381.8" class="st6" width="40.8" height="12.7"/>
	<text transform="matrix(1 0 0 1 173.4517 386.5134)"><tspan x="0" y="0" class="st1 st7 st8">blue</tspan><tspan x="-2.5" y="7.2" class="st1 st7 st8">stage</tspan></text>
	
		<rect x="114.1" y="370.7" transform="matrix(1 -6.541063e-003 6.541063e-003 1 -2.4631 0.8876)" class="st6" width="40.8" height="12.7"/>
	<text transform="matrix(1 0 0 1 126.3594 373.6533)"><tspan x="0" y="0" class="st1 st7 st9">artist</tspan><tspan x="1.9" y="4.8" class="st1 st7 st9">area</tspan></text>
	<rect x="88.5" y="361" class="st6" width="40.8" height="12.7"/>
	<text transform="matrix(1 0 0 1 93.7614 364.1199)"><tspan x="0" y="0" class="st1 st7 st9">production</tspan><tspan x="9.8" y="4.8" class="st1 st7 st9">city</tspan></text>
	<rect x="106.6" y="347.1" class="st6" width="40.8" height="12.7"/>
	<text transform="matrix(1 0 0 1 119.7847 350.2033)"><tspan x="0" y="0" class="st1 st7 st9">press</tspan><tspan x="0.9" y="4.8" class="st1 st7 st9">zone</tspan></text>
	<rect x="91.8" y="336.1" class="st6" width="40.8" height="12.7"/>
	<text transform="matrix(1 0 0 1 108.3732 339.2033)" class="st1 st7 st9">vip</text>
	<rect x="167.8" y="483.3" class="st6" width="40.8" height="12.7"/>
	<text transform="matrix(1 0 0 1 177.4204 486.4533)"><tspan x="0" y="0" class="st1 st7 st9">festival</tspan><tspan x="0" y="4.8" class="st1 st7 st9">storage</tspan></text>
	<rect x="200.5" y="491.3" class="st6" width="40.8" height="12.7"/>
	<text transform="matrix(1 0 0 1 208.7066 494.4533)"><tspan x="0" y="0" class="st1 st7 st9">beverage</tspan><tspan x="1.4" y="4.8" class="st1 st7 st9">storage</tspan></text>
	<rect x="306.9" y="311.3" class="st6" width="42.6" height="12.7"/>
	<text transform="matrix(1 0 0 1 319.3345 316.0133)"><tspan x="0" y="0" class="st1 st7 st8">main</tspan><tspan x="-9.7" y="7.2" class="st1 st7 st8">entrance</tspan></text>
	<rect x="260.5" y="241.3" class="st6" width="40.8" height="3.4"/>
	<text transform="matrix(1 0 0 1 274.757 244.4538)" class="st1 st7 st9">volt</text>
	<rect x="379.3" y="242.4" class="st6" width="58" height="19"/>
	<text transform="matrix(1 0 0 1 394.5143 245.4775)"><tspan x="0" y="0" class="st1 st7 st9">volunteer </tspan><tspan x="2.5" y="4.8" class="st1 st7 st9">security</tspan><tspan x="4.6" y="9.6" class="st1 st7 st9">pick-up </tspan><tspan x="6.8" y="14.4" class="st1 st7 st9">point</tspan></text>
	<rect x="317.3" y="222.5" class="st6" width="40.8" height="3.4"/>
	<text transform="matrix(1 0 0 1 327.9093 225.6205)" class="st1 st7 st9">o-town</text>
	<rect x="357" y="316.3" class="st6" width="58" height="7.9"/>
	<text transform="matrix(1 0 0 1 372.2643 319.4537)"><tspan x="0" y="0" class="st1 st7 st9">volunteer </tspan><tspan x="2.7" y="4.8" class="st1 st7 st9">check-in</tspan></text>
	<rect x="356.7" y="104.8" class="st6" width="45.1" height="12.7"/>
	<text transform="matrix(1 0 0 1 360.6836 109.5138)" class="st1 st7 st8">magicbox</text>
	<g id="XMLID_56_">
		<path id="XMLID_329_" class="st1" d="M215.5,311.1c0.1,0.1,0.2,0.1,0.3,0.2c1,0.6,1.4,1.4,1.3,2.5c-0.1,1.2-0.7,2-1.8,2.4
			c-0.5,0.2-1.1,0.3-1.6,0.3c-1.7,0-3.4,0-5,0c-0.5,0-0.6-0.1-0.6-0.6c0-3.1,0-6.2,0-9.3c0-0.6,0.1-0.6,0.6-0.6c1.6,0,3.2,0,4.8,0
			c1.1,0,2,0.3,2.7,1.2c0.9,1.2,0.7,2.7-0.4,3.7C215.7,311,215.6,311,215.5,311.1z M212.3,314.1
			C212.3,314.1,212.3,314.1,212.3,314.1c0.4,0,0.8,0,1.1,0c0.1,0,0.1,0,0.2,0c0.5-0.1,0.8-0.4,0.8-0.9c0-0.5-0.2-0.8-0.8-0.9
			c-0.5,0-1,0-1.5,0c-1.6,0-1.3-0.3-1.3,1.4c0,0,0,0,0,0c0,0.3,0.1,0.4,0.4,0.4C211.5,314.1,211.9,314.1,212.3,314.1z M212.1,308.5
			L212.1,308.5c-0.3,0-0.7,0-1,0c-0.3,0-0.4,0.1-0.4,0.4c0.1,0.4-0.3,0.9,0.2,1.2c0,0,0.1,0,0.1,0c0.7,0,1.4,0,2.1,0
			c0.5,0,0.7-0.4,0.7-0.8c0-0.5-0.3-0.8-0.8-0.8C212.8,308.5,212.5,308.5,212.1,308.5z M210.7,311.1c0,0.1,0,0.1,0,0.2
			c0.2,0,0.3,0.1,0.5,0.1c0.7,0,1.5,0,2.2,0c0.7,0,1.3,0.3,1.8,0.9c0.5,0.6,0.6,1.3,0.2,2c-0.3,0.7-0.9,0.9-1.6,0.9
			c-0.7,0-1.5,0-2.2,0c-0.2,0-0.4-0.1-0.6-0.1c-0.2,0-0.4,0-0.5,0.1c-0.1,0.1-0.1,0.3,0,0.4c0.1,0.1,0.3,0.1,0.5,0.1
			c0.2,0,0.5-0.1,0.7-0.1c0.7,0,1.5,0,2.2,0c1,0,1.7-0.6,1.9-1.4c0.4-1.5-0.8-2.9-2.4-3c-0.8,0-1.5,0-2.3,0
			C211,311.1,210.9,311.1,210.7,311.1z M209.4,315.5c0-0.2,0.1-0.3,0.1-0.4c0-2.5,0-5,0-7.5c0-0.1-0.1-0.2-0.1-0.4
			C209.1,307.6,209.2,315.1,209.4,315.5z M210.6,307.3c0,0.1,0,0.1,0,0.2c0.2,0,0.3,0,0.5,0c0.8,0,1.5,0,2.3,0
			c0.6,0,1.2,0.2,1.5,0.8c0.3,0.6,0.2,1.2-0.2,1.8c-0.1,0.1-0.1,0.3-0.2,0.4c0,0,0.1,0.1,0.1,0.1c0.1-0.1,0.2-0.1,0.3-0.2
			c0.5-0.7,0.7-1.4,0.3-2.2c-0.3-0.8-1-1-1.8-1c-0.8,0-1.6,0-2.4,0C210.9,307.2,210.8,307.3,210.6,307.3z"/>
		<path id="XMLID_324_" class="st1" d="M168.2,310.8c0,0.3,0,0.4,0,0.6c0,1.5,0,3,0,4.5c0,0.5-0.1,0.6-0.6,0.6c-0.5,0-1,0-1.5,0
			c-0.6,0-0.7,0-0.7-0.6c0-2.9,0-5.7,0-8.6c0-0.3,0-0.5,0-0.8c0-0.4,0.2-0.5,0.5-0.5c0.4,0,0.8,0,1.2,0c0.4,0,0.7,0.1,0.9,0.4
			c1.3,1.6,2.6,3.3,3.9,4.9c0.1,0.1,0.2,0.2,0.4,0.3c0-0.2,0-0.3,0-0.5c0-1.5,0-3,0-4.5c0-0.5,0.1-0.6,0.6-0.6c0.5,0,1,0,1.5,0
			c0.6,0,0.7,0.1,0.7,0.6c0,1.8,0,3.7,0,5.5c0,1.3,0,2.5,0,3.8c0,0.4-0.2,0.6-0.6,0.6c-1.7,0-1.7,0-2.8-1.3c-1.1-1.3-2.2-2.7-3.2-4
			C168.5,311.1,168.4,311,168.2,310.8z M173.8,307.2c-0.1,0-0.1,0-0.2,0c0,0.1-0.1,0.3-0.1,0.4c0,2.5,0,4.9,0,7.4
			c0,0.1,0.1,0.3,0.1,0.4c0,0,0.1,0,0.1,0C173.8,312.7,173.8,310,173.8,307.2z M166.9,307.2c-0.1,0-0.1,0-0.2,0
			c0,0.2-0.1,0.3-0.1,0.5c0,2.3,0,4.5,0,6.8c0,0.2-0.1,0.4-0.1,0.5c0,0.2,0,0.4,0.1,0.5c0,0.1,0.4,0.1,0.4,0
			c0.1-0.1,0.1-0.3,0.1-0.5c0-0.2-0.1-0.4-0.1-0.6c0-2.2,0-4.5,0-6.7C166.9,307.6,166.9,307.4,166.9,307.2z M172.7,313.9
			c-0.1-0.1-0.1-0.2-0.2-0.3c-1.4-1.7-2.7-3.3-4.1-5c-0.1-0.1-0.2-0.1-0.3-0.2C168.1,309,172.3,313.9,172.7,313.9z"/>
		<path id="XMLID_319_" class="st1" d="M176.9,311.3c0-1.5,0-3.1,0-4.6c0-0.5,0.1-0.6,0.6-0.6c1.4,0,2.8,0,4.2,0
			c2.9,0,4.8,1.9,5,4.7c0.1,1.7-0.2,3.2-1.5,4.5c-0.9,0.9-2,1.3-3.3,1.3c-1.5,0-3,0-4.5,0c-0.4,0-0.5-0.2-0.5-0.5
			C176.9,314.4,176.9,312.8,176.9,311.3z M179.6,311.3c0,0.7,0,1.5,0,2.2c0,0.3,0.1,0.4,0.4,0.4c0.5,0,1.1,0,1.6,0
			c1.2,0,2-0.7,2.2-2c0.1-0.5,0.1-1,0-1.5c-0.2-1.1-1-1.8-2.1-1.8c-0.6,0-1.1,0-1.7,0c-0.4,0-0.5,0.1-0.5,0.5
			C179.6,309.8,179.6,310.5,179.6,311.3z M179.5,315.2c0,0.1,0,0.1,0,0.2c0.1,0,0.2,0.1,0.4,0.1c0.7,0,1.5,0,2.2,0
			c0.6,0,1.2-0.2,1.7-0.6c1.6-1.2,2.1-3.4,1.4-5.3c-0.5-1.3-1.5-2.1-2.9-2.3c-0.8-0.1-1.7,0-2.5,0c-0.1,0-0.1,0.1-0.2,0.1
			c0.1,0.1,0.3,0.2,0.4,0.2c0.7,0,1.3,0,2,0c0.9,0,1.6,0.4,2.2,1c1.3,1.4,1.4,3.6,0.2,5.2c-0.7,0.9-1.5,1.5-2.7,1.4
			c-0.6,0-1.2,0-1.8,0C179.8,315.1,179.7,315.2,179.5,315.2z M178.2,315.4c0.1,0,0.1,0,0.2,0c0-0.2,0-0.3,0-0.5c0-2.2,0-4.5,0-6.7
			c0-0.2,0.1-0.4,0.1-0.6c0-0.2,0-0.4-0.1-0.5c-0.1-0.1-0.3-0.1-0.4,0c-0.1,0.1-0.1,0.3-0.1,0.4c0,0.2,0.2,0.5,0.2,0.7
			c0,2.2,0,4.4,0,6.7C178.1,315.1,178.1,315.3,178.2,315.4z"/>
		<path id="XMLID_313_" class="st1" d="M206.8,316.5c-0.5,0-0.9,0-1.3,0c-2.3,0-1.5,0.3-2.9-1.5c-0.2-0.2-0.3-0.4-0.4-0.6
			c-0.3-0.7-0.8-0.7-1.5-0.7c-0.3,0-0.4,0.1-0.4,0.4c0,0.6,0,1.2,0,1.9c0,0.4-0.1,0.6-0.5,0.6c-0.5,0-1.1,0-1.6,0
			c-0.4,0-0.6-0.1-0.6-0.5c0-3.1,0-6.3,0-9.4c0-0.4,0.2-0.5,0.5-0.5c1.6,0,3.2,0,4.8,0c1.8,0,3.1,1,3.6,2.6c0.5,1.8-0.1,3.6-1.5,4.5
			c-0.3,0.2-0.3,0.4-0.1,0.6c0.5,0.7,1.1,1.5,1.6,2.2C206.5,316.1,206.6,316.3,206.8,316.5z M200.3,309.9c0,0.3,0,0.7,0,1
			c0,0.1,0.2,0.4,0.3,0.4c0.7,0,1.5,0,2.2,0c0.8-0.1,1.2-0.6,1.2-1.5c0-0.8-0.5-1.2-1.3-1.3c-0.7,0-1.4,0-2.1,0
			c-0.3,0-0.4,0.1-0.4,0.4C200.3,309.2,200.3,309.5,200.3,309.9z M198.8,315.4c0.1,0,0.1,0,0.2,0c0-0.2,0.1-0.3,0.1-0.5
			c0-2.2,0-4.5,0-6.7c0-0.2,0.1-0.5,0.1-0.7c0-0.1,0-0.4-0.1-0.4c-0.1-0.1-0.3-0.1-0.4,0c-0.1,0.1-0.1,0.3-0.1,0.4
			c0,0.2,0.1,0.5,0.2,0.7c0,2.2,0,4.4,0,6.6C198.8,315.1,198.8,315.3,198.8,315.4z M203.7,312.3c0,0.1,0.1,0.1,0.1,0.2
			c0.1,0,0.3-0.1,0.4-0.1c0.3-0.3,0.7-0.7,0.9-1c1-1.8,0.1-3.9-1.9-4.1c-0.9-0.1-1.8,0-2.6,0c-0.1,0-0.2,0.1-0.3,0.1
			c0,0,0,0.1,0,0.1c0.2,0,0.3,0,0.5,0c0.7,0,1.5,0,2.2,0c1.3,0,2.1,0.8,2.2,1.9c0.1,1-0.3,1.9-1.1,2.6
			C203.9,312.1,203.8,312.2,203.7,312.3z M200.4,312.2c0,0.1,0,0.2,0,0.2c0.4,0,0.8,0,1.2,0c0.3,0,0.6,0.1,0.8,0.4
			c0.5,0.8,1.1,1.5,1.6,2.3c0.1,0.1,0.2,0.2,0.3,0.3c0,0,0.1-0.1,0.1-0.1c-0.1-0.1-0.1-0.3-0.2-0.4c-0.4-0.6-0.9-1.1-1.2-1.7
			c-0.5-0.8-1.1-1.2-2-1C200.8,312.2,200.6,312.2,200.4,312.2z"/>
		<path id="XMLID_309_" class="st1" d="M223.5,305.8c3.1,0,5.6,2.4,5.6,5.5c0,3-2.5,5.5-5.6,5.5c-3.1,0-5.6-2.5-5.6-5.5
			C217.9,308.3,220.4,305.8,223.5,305.8z M226.3,311.3c0-1.6-1.2-2.9-2.8-2.9c-1.6,0-2.8,1.3-2.8,2.8c0,1.6,1.2,2.8,2.8,2.8
			C225,314.1,226.3,312.9,226.3,311.3z M222.9,315.6c0-0.1,0-0.1,0-0.2c-0.1,0-0.3-0.1-0.4-0.1c-1.9-0.5-3.2-2.2-3.1-4.2
			c0.1-1.9,1.5-3.5,3.4-3.8c0.5-0.1,1,0,1.4,0c1.9,0.2,3.3,1.9,3.4,3.8c0.1,2-1.3,3.8-3.2,4.2c-0.2,0-0.3,0.1-0.5,0.2
			c0,0,0,0.1,0,0.1c0.1,0,0.3,0,0.4,0c2.3-0.5,3.9-2.8,3.4-5.1c-0.2-1.2-0.8-2.1-1.8-2.8c-1-0.6-2-1-3.2-0.7c-2,0.4-3.5,2.1-3.7,4.1
			c-0.1,2,1.2,3.9,3.2,4.5C222.5,315.6,222.7,315.6,222.9,315.6z"/>
		<path id="XMLID_303_" class="st1" d="M188.1,311.3c0-1.5,0-3.1,0-4.6c0-0.6,0-0.7,0.7-0.7c2.3,0,4.5,0,6.8,0
			c0.6,0,0.6,0.1,0.6,0.7c0,0.4,0,0.8,0,1.3c0,0.7-0.1,0.7-0.7,0.7c-1.4,0-2.8,0-4.1,0c-0.4,0-0.5,0.2-0.5,0.6c0,1.1,0,0.9,0.9,0.9
			c1,0,2,0,3,0c0.4,0,0.6,0.2,0.6,0.6c0,0.5,0,0.9,0,1.4c0,0.4-0.1,0.5-0.5,0.5c-1.1,0-2.2,0-3.3,0c-0.4,0-0.6,0.1-0.6,0.5
			c0,0.1,0,0.2,0,0.3c0,0.4,0.1,0.5,0.5,0.5c1.4,0,2.8,0,4.2,0c0.6,0,0.7,0,0.7,0.6c0,0.5,0,1,0,1.5c0,0.3-0.1,0.5-0.5,0.5
			c-2.4,0-4.8,0-7.1,0c-0.4,0-0.5-0.2-0.5-0.6C188.1,314.4,188.1,312.8,188.1,311.3z M189.6,307.2c-0.1,0-0.1,0-0.2,0
			c0,0.1-0.1,0.2-0.1,0.4c0,2.5,0,5,0,7.5c0,0.1,0.1,0.2,0.1,0.4c0,0,0.1,0,0.1,0C189.6,312.7,189.6,310,189.6,307.2z M195.2,307.4
			c-0.4-0.2-4.1-0.2-4.3,0C191.2,307.6,194.9,307.6,195.2,307.4z M195.2,315.3c-0.4-0.2-4.1-0.2-4.3,0
			C191.2,315.5,194.9,315.5,195.2,315.3z M190.9,311.2c0,0.1,0,0.1,0,0.2c0.1,0,0.3,0.1,0.4,0.1c0.4,0,0.8,0,1.3,0
			c0.5,0,1,0.1,1.5,0.2c0.1,0,0.3-0.1,0.4-0.2c0.1-0.1,0-0.3-0.1-0.4c-0.1-0.1-0.3-0.1-0.4-0.1c-0.2,0-0.4,0.2-0.7,0.2
			c-0.7,0-1.4,0-2,0C191.2,311.1,191,311.2,190.9,311.2z"/>
		<path id="XMLID_298_" class="st1" d="M233.9,308.8c0.6-0.8,1.1-1.5,1.5-2.3c0.3-0.4,0.6-0.6,1.1-0.6c0.6,0,1.3,0,2,0
			c0.1,0,0.2,0.1,0.4,0.1c0,0.1-0.1,0.3-0.1,0.4c-1,1.4-1.9,2.8-2.9,4.2c-0.3,0.4-0.3,0.6,0,1c1,1.4,1.9,2.8,2.9,4.2
			c0.1,0.1,0.2,0.3,0.3,0.5c-0.2,0-0.4,0.1-0.5,0.1c-0.7,0-1.5,0-2.2,0c-0.3,0-0.6-0.1-0.8-0.4c-0.5-0.7-0.9-1.3-1.4-2
			c-0.2-0.3-0.4-0.3-0.6,0c-0.4,0.7-0.9,1.3-1.3,2c-0.2,0.3-0.5,0.5-0.9,0.5c-0.8,0-1.7,0-2.6,0c0.1-0.2,0.2-0.4,0.3-0.5
			c0.9-1.4,1.9-2.8,2.9-4.2c0.3-0.4,0.3-0.7,0-1.2c-1-1.3-1.9-2.7-2.8-4.1c-0.1-0.1-0.1-0.3-0.2-0.4c0.1,0,0.3-0.1,0.4-0.1
			c0.7,0,1.4,0,2,0c0.4,0,0.6,0.1,0.8,0.4c0.4,0.6,0.9,1.3,1.3,1.9C233.6,308.5,233.7,308.6,233.9,308.8z M236.8,315.5
			c0-0.4-5.2-8-5.6-8.2C231.1,307.5,236.3,315.1,236.8,315.5z M231,315.4c0,0,0.1,0.1,0.1,0.1c0.1-0.1,0.2-0.2,0.3-0.3
			c0.5-0.7,0.9-1.3,1.4-2c0.1-0.2,0.3-0.3,0.4-0.4c0.1-0.1,0.2-0.3,0.2-0.4c0-0.1-0.3-0.3-0.4-0.2c-0.1,0.1-0.2,0.3-0.3,0.4
			c-0.1,0.1-0.1,0.3-0.2,0.5c-0.5,0.7-1,1.4-1.4,2.1C231.1,315.1,231.1,315.2,231,315.4z M234.5,310.2c0,0,0.1,0.1,0.1,0.1
			c0.1,0,0.1,0,0.2-0.1c0.7-0.9,1.3-1.8,2-2.8c0-0.1,0-0.2,0-0.3c0,0-0.1,0-0.1,0C235.9,308.2,235.2,309.2,234.5,310.2z"/>
		<path id="XMLID_295_" class="st1" d="M155.4,306c1.3,0,2.7,0,4,0c0.6,0,0.6,0.1,0.6,0.6c0,0.5,0,1,0,1.5c0,0.4-0.2,0.6-0.6,0.6
			c-0.7,0-1.4,0-2,0c-0.7,0-0.7,0-0.7,0.7c0,2.2,0,4.3,0,6.5c0,0.6-0.1,0.7-0.7,0.7c-0.5,0-1,0-1.5,0c-0.5,0-0.6-0.1-0.6-0.6
			c0-2.1,0-4.2,0-6.4c0-1,0.1-0.9-0.9-0.9c-0.6,0-1.2,0-1.8,0c-0.4,0-0.5-0.2-0.5-0.5c0-0.5,0-1,0-1.5c0-0.4,0.2-0.6,0.6-0.6
			C152.7,306,154,306,155.4,306z M155.2,307.5c0,0.2,0,0.2,0,0.3c0,2.3,0,4.6,0,6.9c0,0.1-0.1,0.3-0.1,0.4c0,0.2,0,0.4,0.1,0.5
			c0.1,0.1,0.4,0.1,0.4,0c0.1-0.1,0.1-0.3,0.1-0.5c0-0.2-0.1-0.4-0.1-0.6c0-2.2,0-4.4,0-6.5c0-0.1,0-0.3,0-0.4c1.2,0,2.3,0,3.4-0.1
			c-0.1-0.1-0.2-0.2-0.3-0.2c-2.3,0-4.6,0-6.9,0c-0.1,0-0.2,0.1-0.3,0.1c0,0.1,0,0.1,0,0.2C152.7,307.5,153.9,307.5,155.2,307.5z"/>
		<path id="XMLID_292_" class="st1" d="M161.1,311.3c0-1.5,0-3.1,0-4.6c0-0.5,0.1-0.6,0.6-0.6c0.5,0,1,0,1.5,0
			c0.6,0,0.7,0.1,0.7,0.6c0,1.6,0,3.3,0,4.9c0,1.5,0,2.9,0,4.4c0,0.5-0.1,0.6-0.6,0.6c-0.5,0-1,0-1.5,0c-0.5,0-0.6-0.1-0.6-0.6
			C161.1,314.4,161.1,312.8,161.1,311.3z M162.4,315.4c0.1,0,0.1,0,0.2,0c0-0.2,0-0.3,0-0.5c0-2.2,0-4.5,0-6.7
			c0-0.2,0.1-0.4,0.1-0.6c0-0.2,0-0.4-0.1-0.5c-0.1-0.1-0.4-0.1-0.4,0c-0.1,0.1-0.1,0.3-0.1,0.5c0,0.2,0.1,0.4,0.1,0.6
			c0,2.3,0,4.5,0,6.8C162.3,315.1,162.3,315.3,162.4,315.4z"/>
		<path id="XMLID_65_" class="st1" d="M195.2,315.3"/>
		<path id="XMLID_64_" class="st1" d="M190.9,315.3"/>
	</g>
	<circle class="st5" cx="254.7" cy="347.7" r="4.2"/>
	<g>
		<g>
			<path class="st1" d="M253.7,346.3c0.4,0,0.7-0.3,0.7-0.7s-0.3-0.7-0.7-0.7s-0.7,0.3-0.7,0.7C252.9,345.9,253.3,346.3,253.7,346.3
				z"/>
			<polygon class="st1" points="254.2,346.5 253.2,346.5 252.6,349 252.6,349 253.2,349 253.2,350.1 254.1,350.1 254.1,349 
				254.7,349 254.2,346.5 			"/>
			<path class="st1" d="M256,346.3c0.4,0,0.7-0.3,0.7-0.7s-0.3-0.7-0.7-0.7c-0.4,0-0.7,0.3-0.7,0.7S255.6,346.3,256,346.3z"/>
			<polygon class="st1" points="256.8,346.5 255.2,346.5 255.2,349 255.2,349 255.6,349 255.6,350.1 256.5,350.1 256.5,349 
				256.8,349 			"/>
		</g>
	</g>
	<g>
		<circle class="st5" cx="162.7" cy="387.5" r="4.2"/>
		<g>
			<g>
				<path class="st1" d="M161.7,386.1c0.4,0,0.7-0.3,0.7-0.7s-0.3-0.7-0.7-0.7s-0.7,0.3-0.7,0.7C161,385.7,161.3,386.1,161.7,386.1z
					"/>
				<polygon class="st1" points="162.2,386.3 161.2,386.3 160.7,388.8 160.7,388.8 161.2,388.8 161.2,389.9 162.2,389.9 
					162.2,388.8 162.7,388.8 162.2,386.3 				"/>
				<path class="st1" d="M164,386.1c0.4,0,0.7-0.3,0.7-0.7s-0.3-0.7-0.7-0.7c-0.4,0-0.7,0.3-0.7,0.7S163.6,386.1,164,386.1z"/>
				<polygon class="st1" points="164.8,386.3 163.2,386.3 163.2,388.8 163.2,388.8 163.6,388.8 163.6,389.9 164.5,389.9 
					164.5,388.8 164.8,388.8 				"/>
			</g>
		</g>
	</g>
	<g>
		<circle class="st5" cx="271" cy="300" r="4.2"/>
		<g>
			<g>
				<path class="st1" d="M270,298.5c0.4,0,0.7-0.3,0.7-0.7c0-0.4-0.3-0.7-0.7-0.7s-0.7,0.3-0.7,0.7
					C269.2,298.2,269.6,298.5,270,298.5z"/>
				<polygon class="st1" points="270.5,298.7 269.5,298.7 268.9,301.2 268.9,301.2 269.5,301.2 269.5,302.4 270.4,302.4 
					270.4,301.2 271,301.2 270.5,298.7 				"/>
				<path class="st1" d="M272.3,298.5c0.4,0,0.7-0.3,0.7-0.7c0-0.4-0.3-0.7-0.7-0.7s-0.7,0.3-0.7,0.7
					C271.6,298.2,271.9,298.5,272.3,298.5z"/>
				<polygon class="st1" points="273.1,298.7 271.5,298.7 271.5,301.2 271.5,301.2 271.9,301.2 271.9,302.4 272.8,302.4 
					272.8,301.2 273.1,301.2 				"/>
			</g>
		</g>
	</g>
	<g>
		<circle class="st5" cx="123" cy="290.8" r="4.2"/>
		<g>
			<g>
				<path class="st1" d="M121.9,289.3c0.4,0,0.7-0.3,0.7-0.7c0-0.4-0.3-0.7-0.7-0.7c-0.4,0-0.7,0.3-0.7,0.7
					C121.2,289,121.5,289.3,121.9,289.3z"/>
				<polygon class="st1" points="122.4,289.5 121.4,289.5 120.9,292 120.9,292 121.5,292 121.5,293.2 122.4,293.2 122.4,292 
					123,292 122.4,289.5 				"/>
				<path class="st1" d="M124.3,289.3c0.4,0,0.7-0.3,0.7-0.7c0-0.4-0.3-0.7-0.7-0.7c-0.4,0-0.7,0.3-0.7,0.7
					C123.5,289,123.8,289.3,124.3,289.3z"/>
				<polygon class="st1" points="125.1,289.5 123.5,289.5 123.5,292 123.5,292 123.8,292 123.8,293.2 124.7,293.2 124.7,292 
					125.1,292 				"/>
			</g>
		</g>
	</g>
	<g>
		<circle class="st5" cx="191.1" cy="213.4" r="4.2"/>
		<g>
			<g>
				<path class="st1" d="M190.1,212c0.4,0,0.7-0.3,0.7-0.7c0-0.4-0.3-0.7-0.7-0.7s-0.7,0.3-0.7,0.7C189.3,211.6,189.7,212,190.1,212
					z"/>
				<polygon class="st1" points="190.6,212.2 189.6,212.2 189.1,214.7 189.1,214.7 189.6,214.7 189.6,215.8 190.5,215.8 
					190.5,214.7 191.1,214.7 190.6,212.2 				"/>
				<path class="st1" d="M192.4,212c0.4,0,0.7-0.3,0.7-0.7c0-0.4-0.3-0.7-0.7-0.7c-0.4,0-0.7,0.3-0.7,0.7
					C191.7,211.6,192,212,192.4,212z"/>
				<polygon class="st1" points="193.2,212.1 191.6,212.1 191.6,214.7 191.6,214.7 192,214.7 192,215.8 192.9,215.8 192.9,214.7 
					193.2,214.7 				"/>
			</g>
		</g>
	</g>
	<g>
		<circle class="st5" cx="243.2" cy="223.2" r="4.2"/>
		<g>
			<g>
				<path class="st1" d="M242.2,221.8c0.4,0,0.7-0.3,0.7-0.7c0-0.4-0.3-0.7-0.7-0.7s-0.7,0.3-0.7,0.7
					C241.4,221.4,241.8,221.8,242.2,221.8z"/>
				<polygon class="st1" points="242.7,221.9 241.7,221.9 241.2,224.4 241.2,224.5 241.7,224.5 241.7,225.6 242.6,225.6 
					242.6,224.5 243.2,224.5 242.7,221.9 				"/>
				<path class="st1" d="M244.5,221.8c0.4,0,0.7-0.3,0.7-0.7c0-0.4-0.3-0.7-0.7-0.7c-0.4,0-0.7,0.3-0.7,0.7
					C243.8,221.4,244.1,221.8,244.5,221.8z"/>
				<polygon class="st1" points="245.3,221.9 243.7,221.9 243.7,224.4 243.7,224.5 244.1,224.5 244.1,225.6 245,225.6 245,224.5 
					245.3,224.5 				"/>
			</g>
		</g>
	</g>
	<g>
		<circle class="st5" cx="356" cy="207.1" r="4.2"/>
		<g>
			<g>
				<path class="st1" d="M355,205.6c0.4,0,0.7-0.3,0.7-0.7c0-0.4-0.3-0.7-0.7-0.7s-0.7,0.3-0.7,0.7
					C354.2,205.3,354.6,205.6,355,205.6z"/>
				<polygon class="st1" points="355.5,205.8 354.5,205.8 353.9,208.3 353.9,208.3 354.5,208.3 354.5,209.5 355.4,209.5 
					355.4,208.3 356,208.3 355.5,205.8 				"/>
				<path class="st1" d="M357.3,205.6c0.4,0,0.7-0.3,0.7-0.7c0-0.4-0.3-0.7-0.7-0.7s-0.7,0.3-0.7,0.7
					C356.6,205.3,356.9,205.6,357.3,205.6z"/>
				<polygon class="st1" points="358.1,205.8 356.5,205.8 356.5,208.3 356.5,208.3 356.9,208.3 356.9,209.5 357.8,209.5 
					357.8,208.3 358.1,208.3 				"/>
			</g>
		</g>
	</g>
	<g>
		<circle class="st5" cx="381.3" cy="83.6" r="4.2"/>
		<g>
			<g>
				<path class="st1" d="M380.3,82.2c0.4,0,0.7-0.3,0.7-0.7s-0.3-0.7-0.7-0.7s-0.7,0.3-0.7,0.7C379.6,81.8,379.9,82.2,380.3,82.2z"
					/>
				<polygon class="st1" points="380.8,82.4 379.8,82.4 379.3,84.9 379.3,84.9 379.8,84.9 379.8,86 380.8,86 380.8,84.9 381.3,84.9 
					380.8,82.4 				"/>
				<path class="st1" d="M382.6,82.2c0.4,0,0.7-0.3,0.7-0.7s-0.3-0.7-0.7-0.7s-0.7,0.3-0.7,0.7S382.2,82.2,382.6,82.2z"/>
				<polygon class="st1" points="383.4,82.4 381.8,82.4 381.8,84.9 381.8,84.9 382.2,84.9 382.2,86 383.1,86 383.1,84.9 383.4,84.9 
									"/>
			</g>
		</g>
	</g>
	<g>
		<circle class="st5" cx="382.5" cy="249" r="4.2"/>
		<g>
			<g>
				<path class="st1" d="M381.5,247.5c0.4,0,0.7-0.3,0.7-0.7c0-0.4-0.3-0.7-0.7-0.7s-0.7,0.3-0.7,0.7
					C380.8,247.2,381.1,247.5,381.5,247.5z"/>
				<polygon class="st1" points="382,247.7 381,247.7 380.5,250.2 380.5,250.2 381,250.2 381,251.4 382,251.4 382,250.2 
					382.5,250.2 382,247.7 				"/>
				<path class="st1" d="M383.8,247.5c0.4,0,0.7-0.3,0.7-0.7c0-0.4-0.3-0.7-0.7-0.7s-0.7,0.3-0.7,0.7
					C383.1,247.2,383.4,247.5,383.8,247.5z"/>
				<polygon class="st1" points="384.6,247.7 383,247.7 383,250.2 383,250.2 383.4,250.2 383.4,251.4 384.3,251.4 384.3,250.2 
					384.6,250.2 				"/>
			</g>
		</g>
	</g>
	<g>
		<circle class="st5" cx="204" cy="507.2" r="4.2"/>
		<g>
			<g>
				<path class="st1" d="M203,505.7c0.4,0,0.7-0.3,0.7-0.7c0-0.4-0.3-0.7-0.7-0.7c-0.4,0-0.7,0.3-0.7,0.7
					C202.2,505.4,202.6,505.7,203,505.7z"/>
				<polygon class="st1" points="203.5,505.9 202.5,505.9 201.9,508.4 201.9,508.5 202.5,508.5 202.5,509.6 203.4,509.6 
					203.4,508.5 204,508.5 203.5,505.9 				"/>
				<path class="st1" d="M205.3,505.7c0.4,0,0.7-0.3,0.7-0.7c0-0.4-0.3-0.7-0.7-0.7c-0.4,0-0.7,0.3-0.7,0.7
					C204.6,505.4,204.9,505.7,205.3,505.7z"/>
				<polygon class="st1" points="206.1,505.9 204.5,505.9 204.5,508.4 204.5,508.5 204.9,508.5 204.9,509.6 205.8,509.6 
					205.8,508.5 206.1,508.5 				"/>
			</g>
		</g>
	</g>
	<g>
		<circle class="st4" cx="261.3" cy="338.6" r="4.2"/>
		<g>
			<path class="st1" d="M262.6,337.2c-0.4-0.6-0.8-1.2-1.1-1.5c0,0-0.1-0.1-0.1-0.1c0,0-0.1,0-0.1,0.1c-0.2,0.3-0.7,0.8-1.1,1.5
				c-0.5,0.8-0.8,1.5-0.8,2.1c0,1.1,0.9,1.9,1.9,1.9c1.1,0,1.9-0.9,1.9-1.9C263.4,338.7,263.1,338,262.6,337.2z M261.7,340.5
				c-0.1,0-0.2,0-0.4,0c-0.7,0-1.3-0.5-1.3-1.2c0-0.2,0-0.4,0.1-0.6c0,0,0.1-0.1,0.1,0c0,0,0.1,0,0.1,0.1c0,0,0,0.1,0,0.1
				c0,0.7,0.6,1.3,1.4,1.4C261.7,340.3,261.7,340.3,261.7,340.5C261.7,340.4,261.7,340.4,261.7,340.5z"/>
		</g>
	</g>
	<g>
		<circle class="st4" cx="199.6" cy="392.8" r="4.2"/>
		<g>
			<path class="st1" d="M200.8,391.4c-0.4-0.6-0.8-1.2-1.1-1.5c0,0-0.1-0.1-0.1-0.1c0,0-0.1,0-0.1,0.1c-0.2,0.3-0.7,0.8-1.1,1.5
				c-0.5,0.8-0.8,1.5-0.8,2.1c0,1.1,0.9,1.9,1.9,1.9s1.9-0.9,1.9-1.9C201.6,392.9,201.4,392.2,200.8,391.4z M199.9,394.7
				c-0.1,0-0.2,0-0.4,0c-0.7,0-1.3-0.5-1.3-1.2c0-0.2,0-0.4,0.1-0.6c0,0,0.1-0.1,0.1,0c0,0,0.1,0,0.1,0.1c0,0,0,0.1,0,0.1
				c0,0.7,0.6,1.3,1.4,1.4C200,394.5,200,394.5,199.9,394.7C200,394.6,200,394.7,199.9,394.7z"/>
		</g>
	</g>
	<g>
		<circle class="st4" cx="118.3" cy="377.9" r="4.2"/>
		<g>
			<path class="st1" d="M119.6,376.5c-0.4-0.6-0.8-1.2-1.1-1.5c0,0-0.1-0.1-0.1-0.1c0,0-0.1,0-0.1,0.1c-0.2,0.3-0.7,0.8-1.1,1.5
				c-0.5,0.8-0.8,1.5-0.8,2.1c0,1.1,0.9,1.9,1.9,1.9c1.1,0,1.9-0.9,1.9-1.9C120.3,378,120.1,377.3,119.6,376.5z M118.6,379.7
				c-0.1,0-0.2,0-0.4,0c-0.7,0-1.3-0.5-1.3-1.2c0-0.2,0-0.4,0.1-0.6c0,0,0.1-0.1,0.1,0c0,0,0.1,0,0.1,0.1c0,0,0,0.1,0,0.1
				c0,0.7,0.6,1.3,1.4,1.4C118.7,379.6,118.7,379.6,118.6,379.7C118.7,379.7,118.7,379.7,118.6,379.7z"/>
		</g>
	</g>
	<g>
		<circle class="st4" cx="130.8" cy="285.1" r="4.2"/>
		<g>
			<path class="st1" d="M132,283.7c-0.4-0.6-0.8-1.2-1.1-1.5c0,0-0.1-0.1-0.1-0.1c0,0-0.1,0-0.1,0.1c-0.2,0.3-0.7,0.8-1.1,1.5
				c-0.5,0.8-0.8,1.5-0.8,2.1c0,1.1,0.9,1.9,1.9,1.9c1.1,0,1.9-0.9,1.9-1.9C132.8,285.2,132.6,284.5,132,283.7z M131.1,287
				c-0.1,0-0.2,0-0.4,0c-0.7,0-1.3-0.5-1.3-1.2c0-0.2,0-0.4,0.1-0.6c0,0,0.1-0.1,0.1,0c0,0,0.1,0,0.1,0.1c0,0,0,0.1,0,0.1
				c0,0.7,0.6,1.3,1.4,1.4C131.2,286.8,131.2,286.8,131.1,287C131.2,286.9,131.2,287,131.1,287z"/>
		</g>
	</g>
	<g>
		<circle class="st4" cx="185.1" cy="220" r="4.2"/>
		<g>
			<path class="st1" d="M186.4,218.6c-0.4-0.6-0.8-1.2-1.1-1.5c0,0-0.1-0.1-0.1-0.1c0,0-0.1,0-0.1,0.1c-0.2,0.3-0.7,0.8-1.1,1.5
				c-0.5,0.8-0.8,1.5-0.8,2.1c0,1.1,0.9,1.9,1.9,1.9s1.9-0.9,1.9-1.9C187.2,220.1,186.9,219.4,186.4,218.6z M185.5,221.9
				c-0.1,0-0.2,0-0.4,0c-0.7,0-1.3-0.5-1.3-1.2c0-0.2,0-0.4,0.1-0.6c0,0,0.1-0.1,0.1,0c0,0,0.1,0,0.1,0.1c0,0,0,0.1,0,0.1
				c0,0.7,0.6,1.3,1.4,1.4C185.5,221.7,185.5,221.8,185.5,221.9C185.6,221.8,185.5,221.9,185.5,221.9z"/>
		</g>
	</g>
	<g>
		<circle class="st4" cx="239" cy="215.4" r="4.2"/>
		<g>
			<path class="st1" d="M240.3,214c-0.4-0.6-0.8-1.2-1.1-1.5c0,0-0.1-0.1-0.1-0.1c0,0-0.1,0-0.1,0.1c-0.2,0.3-0.7,0.8-1.1,1.5
				c-0.5,0.8-0.8,1.5-0.8,2.1c0,1.1,0.9,1.9,1.9,1.9s1.9-0.9,1.9-1.9C241.1,215.5,240.8,214.8,240.3,214z M239.4,217.3
				c-0.1,0-0.2,0-0.4,0c-0.7,0-1.3-0.5-1.3-1.2c0-0.2,0-0.4,0.1-0.6c0,0,0.1-0.1,0.1,0c0,0,0.1,0,0.1,0.1c0,0,0,0.1,0,0.1
				c0,0.7,0.6,1.3,1.4,1.4C239.4,217.1,239.4,217.2,239.4,217.3C239.4,217.2,239.4,217.3,239.4,217.3z"/>
		</g>
	</g>
	<g>
		<circle class="st4" cx="355.3" cy="69.9" r="4.2"/>
		<g>
			<path class="st1" d="M356.6,68.5c-0.4-0.6-0.8-1.2-1.1-1.5c0,0-0.1-0.1-0.1-0.1c0,0-0.1,0-0.1,0.1c-0.2,0.3-0.7,0.8-1.1,1.5
				c-0.5,0.8-0.8,1.5-0.8,2.1c0,1.1,0.9,1.9,1.9,1.9c1.1,0,1.9-0.9,1.9-1.9C357.3,70,357.1,69.3,356.6,68.5z M355.7,71.8
				c-0.1,0-0.2,0-0.4,0c-0.7,0-1.3-0.5-1.3-1.2c0-0.2,0-0.4,0.1-0.6c0,0,0.1-0.1,0.1,0c0,0,0.1,0,0.1,0.1c0,0,0,0.1,0,0.1
				c0,0.7,0.6,1.3,1.4,1.4C355.7,71.6,355.7,71.7,355.7,71.8C355.7,71.7,355.7,71.8,355.7,71.8z"/>
		</g>
	</g>
	<g>
		<circle class="st4" cx="386.3" cy="292.4" r="4.2"/>
		<g>
			<path class="st1" d="M387.6,291c-0.4-0.6-0.8-1.2-1.1-1.5c0,0-0.1-0.1-0.1-0.1c0,0-0.1,0-0.1,0.1c-0.2,0.3-0.7,0.8-1.1,1.5
				c-0.5,0.8-0.8,1.5-0.8,2.1c0,1.1,0.9,1.9,1.9,1.9c1.1,0,1.9-0.9,1.9-1.9C388.4,292.5,388.1,291.9,387.6,291z M386.7,294.3
				c-0.1,0-0.2,0-0.4,0c-0.7,0-1.3-0.5-1.3-1.2c0-0.2,0-0.4,0.1-0.6c0,0,0.1-0.1,0.1,0s0.1,0,0.1,0.1c0,0,0,0.1,0,0.1
				c0,0.7,0.6,1.3,1.4,1.4C386.7,294.2,386.8,294.2,386.7,294.3C386.8,294.3,386.7,294.3,386.7,294.3z"/>
		</g>
	</g>
	<g>
		<circle class="st4" cx="199.6" cy="475.1" r="4.2"/>
		<g>
			<path class="st1" d="M200.9,473.7c-0.4-0.6-0.8-1.2-1.1-1.5c0,0-0.1-0.1-0.1-0.1c0,0-0.1,0-0.1,0.1c-0.2,0.3-0.7,0.8-1.1,1.5
				c-0.5,0.8-0.8,1.5-0.8,2.1c0,1.1,0.9,1.9,1.9,1.9s1.9-0.9,1.9-1.9C201.6,475.2,201.4,474.5,200.9,473.7z M200,477
				c-0.1,0-0.2,0-0.4,0c-0.7,0-1.3-0.5-1.3-1.2c0-0.2,0-0.4,0.1-0.6c0,0,0.1-0.1,0.1,0c0,0,0.1,0,0.1,0.1c0,0,0,0.1,0,0.1
				c0,0.7,0.6,1.3,1.4,1.4C200,476.9,200,476.9,200,477C200,477,200,477,200,477z"/>
		</g>
	</g>
	<g>
		<circle class="st3" cx="342.6" cy="408.9" r="4.2"/>
		<g>
			<path class="st1" d="M344.8,408.3c-0.1,0-0.1,0-0.2,0l-0.3-1.1c0,0,0.1-0.1,0.1-0.1c0-0.1-0.1-0.2-0.2-0.2h-0.9
				c-0.1,0-0.2,0.1-0.2,0.2c0,0.1,0.1,0.2,0.2,0.2h0.6l-0.2,0.4c0,0,0,0,0,0l-1.9,0c0,0,0.1-0.1,0.1-0.2c0-0.1-0.1-0.2-0.2-0.2H341
				c-0.1,0-0.2,0.1-0.2,0.2s0.1,0.2,0.2,0.2h0c0,0,0,0,0,0.1l0.1,0.1l-0.2,0.5c-0.1,0-0.3-0.1-0.4-0.1c-0.7,0-1.3,0.6-1.3,1.3
				s0.6,1.3,1.3,1.3c0.6,0,1.2-0.4,1.3-1l0.7,0c0,0,0,0,0,0c0.1,0,0.1,0,0.2-0.1l1.3-2.1l0.2,0.7c-0.4,0.2-0.8,0.7-0.8,1.2
				c0,0.7,0.6,1.3,1.3,1.3s1.3-0.6,1.3-1.3S345.5,408.3,344.8,408.3z M341.4,408.3l0.7,1.2l-0.3,0c0-0.4-0.2-0.7-0.5-0.9
				L341.4,408.3z M339.6,409.6c0-0.5,0.4-0.9,0.9-0.9c0.1,0,0.1,0,0.2,0l-0.4,0.8c0,0.1,0,0.1,0,0.2s0.1,0.1,0.2,0.1l0.9,0.1
				c-0.1,0.4-0.5,0.6-0.9,0.6C340,410.5,339.6,410.1,339.6,409.6z M340.8,409.4l0.2-0.5c0.2,0.1,0.3,0.3,0.3,0.5L340.8,409.4z
				 M342.5,409.3l-0.8-1.3l1.6,0L342.5,409.3z M344.8,410.5c-0.5,0-0.9-0.4-0.9-0.9c0-0.3,0.2-0.6,0.4-0.8l0.2,0.8
				c0,0.1,0.2,0.2,0.3,0.1c0.1,0,0.2-0.2,0.1-0.3l-0.2-0.8c0,0,0,0,0,0c0.5,0,0.9,0.4,0.9,0.9C345.7,410.1,345.3,410.5,344.8,410.5z
				"/>
		</g>
	</g>
	<g>
		<circle class="st4" cx="391.6" cy="270.4" r="4.2"/>
		<g>
			<path class="st1" d="M391.4,267.9v1.6c0,0.1-0.3,0.3-0.4,0.4v0.5c0.1,0,0.2,0.1,0.2,0.2v2.5c0,0.1-0.1,0.2-0.2,0.2h-0.2
				c-0.1,0-0.2-0.1-0.2-0.2v-2.5c0-0.1,0.1-0.2,0.2-0.2v-0.5c-0.2-0.1-0.5-0.3-0.5-0.4v-1.6c0-0.1,0.1-0.2,0.2-0.2h0.1v1.6
				c0,0,0,0.1,0.1,0.1c0.1,0,0.1,0,0.1-0.1v-1.6h0.2v1.6c0,0,0,0.1,0.1,0.1c0.1,0,0.1,0,0.1-0.1v-1.6h0
				C391.3,267.7,391.4,267.8,391.4,267.9z M392.7,267.7c0,0-0.6,0.4-0.6,1.4c0,0.1,0,0.2,0,0.2c0,1,0.2,1.5,0.4,1.8v2
				c0,0.1,0.1,0.2,0.2,0.2h0.1c0.1,0,0.2-0.1,0.2-0.2V271c0,0,0,0,0,0v-3C392.9,267.8,392.9,267.6,392.7,267.7z"/>
		</g>
	</g>
	<g>
		<circle class="st4" cx="390.1" cy="277.6" r="4.2"/>
		<g>
			<path class="st1" d="M390,275v1.6c0,0.1-0.3,0.3-0.4,0.4v0.5c0.1,0,0.2,0.1,0.2,0.2v2.5c0,0.1-0.1,0.2-0.2,0.2h-0.2
				c-0.1,0-0.2-0.1-0.2-0.2v-2.5c0-0.1,0.1-0.2,0.2-0.2V277c-0.2-0.1-0.5-0.3-0.5-0.4V275c0-0.1,0.1-0.2,0.2-0.2h0.1v1.6
				c0,0,0,0.1,0.1,0.1c0.1,0,0.1,0,0.1-0.1v-1.6h0.2v1.6c0,0,0,0.1,0.1,0.1s0.1,0,0.1-0.1v-1.6h0C389.9,274.8,390,274.9,390,275z
				 M391.2,274.8c0,0-0.6,0.4-0.6,1.4c0,0.1,0,0.2,0,0.2c0,1,0.2,1.5,0.4,1.8v2c0,0.1,0.1,0.2,0.2,0.2h0.1c0.1,0,0.2-0.1,0.2-0.2
				v-2.1c0,0,0,0,0,0v-3C391.5,274.9,391.4,274.8,391.2,274.8z"/>
		</g>
	</g>
	<g>
		<circle class="st4" cx="388.8" cy="284.9" r="4.2"/>
		<g>
			<path class="st1" d="M390,283.5c-0.4-0.6-0.8-1.2-1.1-1.5c0,0-0.1-0.1-0.1-0.1s-0.1,0-0.1,0.1c-0.2,0.3-0.7,0.8-1.1,1.5
				c-0.5,0.8-0.8,1.5-0.8,2.1c0,1.1,0.9,1.9,1.9,1.9c1.1,0,1.9-0.9,1.9-1.9C390.8,285,390.5,284.3,390,283.5z M389.1,286.8
				c-0.1,0-0.2,0-0.4,0c-0.7,0-1.3-0.5-1.3-1.2c0-0.2,0-0.4,0.1-0.6c0,0,0.1-0.1,0.1,0c0,0,0.1,0,0.1,0.1c0,0,0,0.1,0,0.1
				c0,0.7,0.6,1.3,1.4,1.4C389.2,286.6,389.2,286.6,389.1,286.8C389.2,286.7,389.2,286.7,389.1,286.8z"/>
		</g>
	</g>
	<rect x="395.7" y="272.7" class="st6" width="42.6" height="12.7"/>
	<text transform="matrix(1 0 0 1 396.3962 277.3467)"><tspan x="0" y="0" class="st1 st7 st8">volunteer</tspan><tspan x="6.5" y="7.2" class="st1 st7 st8">lounge</tspan></text>
	<g>
		<circle class="st3" cx="385.9" cy="263.4" r="4.2"/>
		<path class="st1" d="M386.4,261.6c0-0.1-0.1-0.6-0.1-1.1c0,0,0,0,0,0c0,0,0.1,0,0.1-0.1v-0.4c0,0,0-0.1-0.1-0.1h-0.8
			c0,0-0.1,0-0.1,0.1v0.4c0,0,0,0.1,0.1,0.1c0,0,0,0,0,0c0,0.5,0,1-0.1,1.1c-0.2,0.6-0.7,0.5-0.7,1.3v2.6c0,1,0.5,0.9,1.2,0.9
			c0.7,0,1.2,0.1,1.2-0.9v-2.6C387.1,262.2,386.6,262.2,386.4,261.6z"/>
	</g>
	<g>
		<circle class="st3" cx="385" cy="300" r="4.2"/>
		<g>
			<g>
				<path class="st1" d="M385,297.1c0.4,0,0.7,0.3,0.7,0.7s-0.3,0.7-0.7,0.7s-0.7-0.3-0.7-0.7S384.6,297.1,385,297.1z M385.6,298.9
					L385.6,298.9h-1.1h0c-0.2,0-0.4,0.2-0.4,0.4l0,0c0,0.2,0.2,0.4,0.4,0.4h0v2.4H384v0.8h2v-0.8h-0.5L385.6,298.9L385.6,298.9z"/>
			</g>
		</g>
	</g>
	<g>
		<circle class="st10" cx="171.5" cy="234.3" r="4.2"/>
		<path class="st11" d="M173.7,233.6h-1.5v-1.5c0-0.4-0.3-0.7-0.7-0.7s-0.7,0.3-0.7,0.7v1.5h-1.5c-0.4,0-0.7,0.3-0.7,0.7
			s0.3,0.7,0.7,0.7h1.5v1.5c0,0.4,0.3,0.7,0.7,0.7s0.7-0.3,0.7-0.7V235h1.5c0.4,0,0.7-0.3,0.7-0.7S174.1,233.6,173.7,233.6z"/>
	</g>
	<g>
		<circle class="st4" cx="401.1" cy="292.5" r="4.2"/>
		<g>
			<path class="st1" d="M403.8,293.8c0-0.4-0.2-0.7-0.5-0.8l-1.9-0.7l0-0.2c0.4-0.1,0.6-0.4,0.6-0.8c0-0.5-0.4-0.9-0.9-0.9
				c-0.2,0-0.6,0.2-0.7,0.5c0,0.1,0,0.2,0,0.2c0,0.1,0.1,0.1,0.2,0.1h0c0.1,0,0.1,0,0.2-0.1c0.1-0.1,0.2-0.2,0.4-0.2
				c0.2,0,0.4,0.2,0.4,0.4c0,0.2-0.2,0.4-0.4,0.4c0,0,0,0,0,0c-0.1,0-0.1,0-0.1,0.1c0,0-0.1,0.1-0.1,0.1l0,0.4L399,293
				c-0.3,0.1-0.6,0.5-0.6,0.8v0.1c0,0.4,0.3,0.7,0.7,0.7h4c0.4,0,0.7-0.3,0.7-0.7L403.8,293.8z M403.4,293.9c0,0.2-0.1,0.3-0.3,0.3
				h-4c-0.2,0-0.3-0.1-0.3-0.3v-0.1c0-0.2,0.1-0.3,0.3-0.4l2-0.8l2,0.8c0.2,0.1,0.3,0.2,0.3,0.4L403.4,293.9L403.4,293.9z"/>
		</g>
	</g>
	<g>
		<circle class="st3" cx="196.2" cy="221.9" r="4.2"/>
		<path class="st1" d="M196.6,220.1c0-0.1-0.1-0.6-0.1-1.1c0,0,0,0,0,0c0,0,0.1,0,0.1-0.1v-0.4c0,0,0-0.1-0.1-0.1h-0.8
			c0,0-0.1,0-0.1,0.1v0.4c0,0,0,0.1,0.1,0.1c0,0,0,0,0,0c0,0.5,0,1-0.1,1.1c-0.2,0.6-0.7,0.5-0.7,1.3v2.6c0,1,0.5,0.9,1.2,0.9
			c0.7,0,1.2,0.1,1.2-0.9v-2.6C197.3,220.7,196.8,220.7,196.6,220.1z"/>
	</g>
	<g>
		<circle class="st3" cx="317.3" cy="209.2" r="4.2"/>
		<path class="st1" d="M317.7,207.4c0-0.1-0.1-0.6-0.1-1.1c0,0,0,0,0,0c0,0,0.1,0,0.1-0.1v-0.4c0,0,0-0.1-0.1-0.1h-0.8
			c0,0-0.1,0-0.1,0.1v0.4c0,0,0,0.1,0.1,0.1c0,0,0,0,0,0c0,0.5,0,1-0.1,1.1c-0.2,0.6-0.7,0.5-0.7,1.3v2.6c0,1,0.5,0.9,1.2,0.9
			c0.7,0,1.2,0.1,1.2-0.9v-2.6C318.4,207.9,317.9,208,317.7,207.4z"/>
	</g>
	<g>
		<circle class="st3" cx="151.5" cy="385.3" r="4.2"/>
		<path class="st1" d="M152,383.5c0-0.1-0.1-0.6-0.1-1.1c0,0,0,0,0,0c0,0,0.1,0,0.1-0.1V382c0,0,0-0.1-0.1-0.1h-0.8
			c0,0-0.1,0-0.1,0.1v0.4c0,0,0,0.1,0.1,0.1c0,0,0,0,0,0c0,0.5,0,1-0.1,1.1c-0.2,0.6-0.7,0.5-0.7,1.3v2.6c0,1,0.5,0.9,1.2,0.9
			c0.7,0,1.2,0.1,1.2-0.9v-2.6C152.7,384.1,152.2,384.1,152,383.5z"/>
	</g>
	<g>
		<circle class="st3" cx="106.3" cy="321.7" r="4.2"/>
		<path class="st1" d="M106.8,319.9c0-0.1-0.1-0.6-0.1-1.1c0,0,0,0,0,0c0,0,0.1,0,0.1-0.1v-0.4c0,0,0-0.1-0.1-0.1h-0.8
			c0,0-0.1,0-0.1,0.1v0.4c0,0,0,0.1,0.1,0.1c0,0,0,0,0,0c0,0.5,0,1-0.1,1.1c-0.2,0.6-0.7,0.5-0.7,1.3v2.6c0,1,0.5,0.9,1.2,0.9
			c0.7,0,1.2,0.1,1.2-0.9v-2.6C107.5,320.4,107,320.4,106.8,319.9z"/>
	</g>
	<g>
		<circle class="st3" cx="166.5" cy="496" r="4.2"/>
		<path class="st1" d="M167,494.2c0-0.1-0.1-0.6-0.1-1.1c0,0,0,0,0,0c0,0,0.1,0,0.1-0.1v-0.4c0,0,0-0.1-0.1-0.1h-0.8
			c0,0-0.1,0-0.1,0.1v0.4c0,0,0,0.1,0.1,0.1c0,0,0,0,0,0c0,0.5,0,1-0.1,1.1c-0.2,0.6-0.7,0.5-0.7,1.3v2.6c0,1,0.5,0.9,1.2,0.9
			c0.7,0,1.2,0.1,1.2-0.9v-2.6C167.7,494.7,167.2,494.8,167,494.2z"/>
	</g>
	<circle class="st3" cx="222" cy="382.8" r="9.2"/>
	<rect x="201.6" y="381.7" class="st6" width="40.8" height="12.7"/>
	<text transform="matrix(1 0 0 1 215.8965 384.7802)" class="st1 st7 st9">BAR 1</text>
	<circle class="st3" cx="365.3" cy="281.4" r="9.2"/>
	<rect x="344.9" y="280.3" class="st6" width="40.8" height="12.7"/>
	<text transform="matrix(1 0 0 1 358.7175 283.4448)" class="st1 st7 st9">BAR 2</text>
	<circle class="st3" cx="254.4" cy="241.7" r="9.2"/>
	<rect x="234.1" y="240.6" class="st6" width="40.8" height="12.7"/>
	<text transform="matrix(1 0 0 1 247.8991 243.6711)" class="st1 st7 st9">BAR 3</text>
	<circle class="st3" cx="338.8" cy="76.1" r="9.2"/>
	<rect x="318.4" y="75" class="st6" width="40.8" height="12.7"/>
	<text transform="matrix(1 0 0 1 332.1931 78.1295)" class="st1 st7 st9">BAR 4</text>
	<circle class="st3" cx="177.9" cy="514.9" r="9.2"/>
	<rect x="157.6" y="513.8" class="st6" width="40.8" height="12.7"/>
	<text transform="matrix(1 0 0 1 171.3474 516.9239)" class="st1 st7 st9">BAR 5</text>
</g>
<g id="Layer_5">
</g>
</svg>
