<?xml version="1.0" encoding="utf-8"?>
<!-- Generator: Adobe Illustrator 17.1.0, SVG Export Plug-In . SVG Version: 6.00 Build 0)  -->
<!DOCTYPE svg PUBLIC "-//W3C//DTD SVG 1.1//EN" "http://www.w3.org/Graphics/SVG/1.1/DTD/svg11.dtd">
<svg version="1.1" id="Layer_1" xmlns="http://www.w3.org/2000/svg" xmlns:xlink="http://www.w3.org/1999/xlink" x="0px" y="0px"
	 viewBox="0 0 400 400" enable-background="new 0 0 400 400" xml:space="preserve">
<g>
	<g>
		<path fill="#043540" d="M56,374c0.9,0.4,2,0.6,2.9,0.6c1.9,0,3.8-0.7,5.2-2l51.3-49h96.4c20,0,36.3-16.3,36.3-36.3v-54.7
			c0-4.1-3.4-7.4-7.4-7.4c-4.1,0-7.4,3.4-7.4,7.4v54.7c0,11.9-9.6,21.4-21.4,21.4h-99.4c-1.9,0-3.8,0.7-5.2,2l-40.9,39.1v-33.6
			c0-4.1-3.4-7.4-7.4-7.4H36.3c-11.9,0-21.4-9.6-21.4-21.4V180.2c0-11.9,9.6-21.5,21.4-21.5H124c4.1,0,7.4-3.4,7.4-7.4
			c0-4.1-3.4-7.4-7.4-7.4H36.3c-20,0-36.3,16.3-36.3,36.3v107.1c0,20,16.3,36.3,36.3,36.3h15.2v43.7C51.5,370.2,53.3,372.9,56,374z"
			/>
		<path fill="#043540" d="M283.8,206.4l51.7,49.5c1.4,1.3,3.3,2,5.2,2c1,0,2-0.2,2.9-0.6c2.7-1.1,4.5-3.8,4.5-6.8v-44.1h15.4
			c20.1,0,36.5-16.3,36.5-36.5v-108c0-20.1-16.3-36.5-36.5-36.5H186.6c-20.1,0-36.5,16.3-36.5,36.5v107.9
			c0,20.1,16.3,36.5,36.5,36.5L283.8,206.4L283.8,206.4z M165,169.8V61.9c0-11.9,9.7-21.7,21.7-21.7h176.7
			c11.9,0,21.7,9.7,21.7,21.7v107.9c0,11.9-9.7,21.7-21.7,21.7h-22.8c-4.1,0-7.4,3.4-7.4,7.4v34.2l-41.3-39.5c-1.4-1.3-3.2-2-5.2-2
			H186.6C174.7,191.6,165,181.9,165,169.8z"/>
		<path fill="#043540" d="M275,124.8c2,0,3.8-0.8,5.2-2.2c1.4-1.4,2.2-3.3,2.2-5.2c0-2-0.8-3.8-2.2-5.2c-1.4-1.4-3.3-2.2-5.2-2.2
			c-2,0-3.8,0.8-5.2,2.2c-1.4,1.4-2.2,3.3-2.2,5.2c0,2,0.8,3.8,2.2,5.2C271.2,124.1,273,124.8,275,124.8z"/>
		<path fill="#043540" d="M302.6,124.8c2,0,3.8-0.8,5.2-2.2s2.2-3.3,2.2-5.2c0-2-0.8-3.8-2.2-5.2c-1.4-1.4-3.3-2.2-5.2-2.2
			c-2,0-3.8,0.8-5.2,2.2c-1.4,1.4-2.2,3.3-2.2,5.2c0,2,0.8,3.8,2.2,5.2C298.7,124.1,300.7,124.8,302.6,124.8z"/>
		<path fill="#043540" d="M247.5,124.8c2,0,3.8-0.8,5.2-2.2c1.4-1.4,2.2-3.3,2.2-5.2c0-2-0.8-3.8-2.2-5.2c-1.4-1.4-3.3-2.2-5.2-2.2
			c-2,0-3.8,0.8-5.2,2.2c-1.4,1.4-2.2,3.3-2.2,5.2c0,2,0.8,3.8,2.2,5.2C243.6,124.1,245.5,124.8,247.5,124.8z"/>
	</g>
</g>
</svg>
