<?xml version="1.0" encoding="utf-8"?>
<!-- Generator: Adobe Illustrator 17.1.0, SVG Export Plug-In . SVG Version: 6.00 Build 0)  -->
<!DOCTYPE svg PUBLIC "-//W3C//DTD SVG 1.1//EN" "http://www.w3.org/Graphics/SVG/1.1/DTD/svg11.dtd">
<svg version="1.1" id="Capa_1" xmlns="http://www.w3.org/2000/svg" xmlns:xlink="http://www.w3.org/1999/xlink" x="0px" y="0px"
	 viewBox="0 0 512 512" enable-background="new 0 0 512 512" xml:space="preserve">
<g>
	<path fill="#043540" d="M256,0C114.8,0,0,114.8,0,256s114.8,256,256,256s256-114.8,256-256S397.2,0,256,0z M256,488.3
		c-130.3,0-232.3-102-232.3-232.3S125.7,23.7,256,23.7s232.3,102,232.3,232.3S386.3,488.3,256,488.3z"/>
	<path fill="#043540" d="M256,364.3c-5.4,0-9.8,4.4-9.8,9.8v19.7c0,5.4,4.4,9.8,9.8,9.8s9.8-4.4,9.8-9.8v-19.7
		C265.8,368.7,261.4,364.3,256,364.3z"/>
	<path fill="#043540" d="M257.1,88.6c-0.4,0-0.7,0-1.1,0c-20.8,0-40.4,8-55.3,22.7c-15.1,14.9-23.5,34.8-23.5,56.1
		c0,5.4,4.4,9.8,9.8,9.8s9.8-4.4,9.8-9.8c0-15.9,6.3-30.9,17.6-42.1c11.4-11.2,26.5-17.4,42.3-17c31.1,0.4,57.8,27.1,58.2,58.2
		c0.3,20.5-9.8,39.4-27.1,50.5c-26.2,16.9-41.8,46.7-41.8,79.9v28c0,5.4,4.4,9.8,9.8,9.8s9.8-4.4,9.8-9.8v-28
		c0-26,12.6-50.3,32.8-63.3c23-14.8,36.5-40,36.1-67.3C334.2,124.1,299.3,89.2,257.1,88.6z"/>
</g>
</svg>
