<?xml version="1.0" encoding="utf-8"?>
<!-- Generator: Adobe Illustrator 17.1.0, SVG Export Plug-In . SVG Version: 6.00 Build 0)  -->
<!DOCTYPE svg PUBLIC "-//W3C//DTD SVG 1.1//EN" "http://www.w3.org/Graphics/SVG/1.1/DTD/svg11.dtd">
<svg version="1.1" id="Capa_1" xmlns="http://www.w3.org/2000/svg" xmlns:xlink="http://www.w3.org/1999/xlink" x="0px" y="0px"
	 viewBox="0 0 400 400" enable-background="new 0 0 400 400" xml:space="preserve">
<g>
	<g>
		<path fill="#043540" d="M200,0C89.7,0,0,89.7,0,200s89.7,200,200,200s200-89.7,200-200S310.3,0,200,0z M200,381.6
			c-96.7,0-181.6-84.9-181.6-181.6S103.3,18.4,200,18.4S382.4,103.3,382.4,200S296.7,381.6,200,381.6z"/>
		<circle fill="#043540" cx="203.2" cy="120.2" r="20.5"/>
		<path fill="#043540" d="M197.7,174.4c-6.8,0-12.3,5.5-12.3,12.3v104.6c0,6.8,5.5,12.3,12.3,12.3c6.8,0,12.3-5.5,12.3-12.3V186.7
			C210.1,179.9,204.5,174.4,197.7,174.4z"/>
	</g>
</g>
</svg>
