<?xml version="1.0" encoding="utf-8"?>
<!-- Generator: Adobe Illustrator 17.1.0, SVG Export Plug-In . SVG Version: 6.00 Build 0)  -->
<!DOCTYPE svg PUBLIC "-//W3C//DTD SVG 1.1//EN" "http://www.w3.org/Graphics/SVG/1.1/DTD/svg11.dtd">
<svg version="1.1" id="Capa_1" xmlns="http://www.w3.org/2000/svg" xmlns:xlink="http://www.w3.org/1999/xlink" x="0px" y="0px"
	 viewBox="0 0 400 400" enable-background="new 0 0 400 400" xml:space="preserve">
<g>
	<path fill="#043540" d="M351,167.3h-57.2c-0.5,0-1.1,0.2-1.5,0.6c-6.3,6.3-2,13.9,4.2,13.9h47.9c10.4,0,19.1,7.8,20.2,18.2
		L381.3,355c1.3,12.4-8.4,23.2-20.9,23.2H39.8c-12.4,0-22-10.9-20.5-23.2l19.3-153.4c1.4-11.3,11-19.8,22.4-19.8h49.1
		c0.5,0,1.1-0.2,1.5-0.6c6.3-6.3,2-13.9-4.2-13.9H52.7c-13.9,0-25.6,10.3-27.3,24.1L3.9,361.7c-2.1,16.5,10.8,31,27.3,31h338
		c16.4,0,29.1-14.2,27.4-30.5L378.4,192C377,178,365.1,167.3,351,167.3z"/>
	<path fill="#043540" d="M193.8,283.3c-1.1,0.6-2.2,1.2-3.2,1.9c-1.6,1-3.1,2.1-4.7,3.2c-3.2,2.3-3.9,7-1.6,10.2c1.4,2,3.7,3,5.9,3
		c1.5,0,3-0.5,4.3-1.4s2.6-1.9,4-2.7c2.3-1.5,4.8-3,7.3-4.2c3.4-1.7,4.8-5.8,3.4-9.2c0.1-0.1,0.2-0.1,0.2-0.2
		c13.1-13.9,57.5-66.1,75.9-153.1c3.8-17.7,4.5-34.5,2.5-50.3c-6.3-47.8-35.9-73-85.9-73s-79.6,25.2-85.9,73
		c-2,15.8-1.3,32.7,2.5,50.3C136.6,216.8,180.2,268.8,193.8,283.3z M130.3,82.3c5.3-40.6,28.8-60.4,71.5-60.4s66.2,19.8,71.5,60.4
		c1.9,14.1,1.1,29.4-2.3,45.4c-16.5,78.2-55.9,127.8-69.1,142.8c-13.4-15.1-52.7-64.7-69.1-142.8C129.2,111.6,128.4,96.4,130.3,82.3
		z"/>
	<path fill="#043540" d="M201.8,144.8c29.5,0,53.4-24,53.4-53.4S231.3,38,201.8,38s-53.4,24-53.4,53.4S172.3,144.8,201.8,144.8z
		 M201.8,52.6c21.4,0,38.9,17.4,38.9,38.9s-17.4,38.9-38.9,38.9s-38.9-17.4-38.9-38.9S180.4,52.6,201.8,52.6z"/>
	<path fill="#043540" d="M228.5,270.2c-3.9,0.9-6.4,4.7-5.6,8.6c0.7,3.4,3.8,5.8,7.1,5.8c0.5,0,1-0.1,1.6-0.2
		c4.3-0.9,8.9-1.6,13.8-2.3c4-0.5,6.8-4.1,6.3-8.1c-0.5-4-4.1-6.9-8.1-6.3C238.2,268.4,233.2,269.2,228.5,270.2z"/>
	<path fill="#043540" d="M266.1,273.2c0.2,3.9,3.4,7,7.3,7c0.1,0,0.2,0,0.3,0l14.5-0.6c4-0.2,7.1-3.6,7-7.6c-0.2-4-3.9-7.2-7.6-7
		l-14.5,0.6C269.1,265.8,265.9,269.1,266.1,273.2z"/>
	<path fill="#043540" d="M163.1,306.6c-3.8,2.8-7.6,5.5-11.5,8c-3.4,2.2-4.3,6.7-2.1,10.1c1.4,2.1,3.8,3.3,6.1,3.3
		c1.3,0,2.7-0.4,4-1.2c4.1-2.7,8.3-5.6,12.3-8.7c3.2-2.4,3.8-7,1.4-10.2C170.9,304.9,166.3,304.2,163.1,306.6z"/>
	<path fill="#043540" d="M325.2,258.7c-2.4,1.7-5.6,3-9.8,3.8c-3.9,0.8-6.5,4.7-5.6,8.6c0.7,3.4,3.8,5.8,7.1,5.8
		c0.5,0,1-0.1,1.5-0.2c6.1-1.3,11.1-3.3,15.2-6.2l0.9-0.7c3.2-2.4,3.8-7,1.4-10.2s-7-3.8-10.2-1.4L325.2,258.7z"/>
	<path fill="#043540" d="M64.5,315.5c1-3.9-1.3-7.9-5.2-8.9c-3.8-1.1-7.9,1.3-8.9,5.2c-0.9,3.4-1.5,6.8-1.6,10.2
		c0,0.9-0.1,1.6-0.1,2.6c0,1.4,0.1,2.8,0.2,4.3c0.4,3.8,3.5,6.6,7.3,6.6c0.2,0,0.5,0,0.8,0c4-0.4,6.9-4,6.5-8
		c-0.1-0.9-0.2-2-0.2-2.8c0-0.6,0-1.2,0.1-1.8C63.4,320.3,63.8,317.9,64.5,315.5z"/>
	<path fill="#043540" d="M325,202.2c-5.8-0.8-11.6-0.3-17.3,1.3c-3.9,1.1-6.1,5.1-5,9c0.9,3.2,3.8,5.3,7,5.3c0.6,0,1.3-0.1,2-0.3
		c3.7-1.1,7.7-1.4,11.5-0.9c4.1,0.5,7.7-2.3,8.2-6.3C331.7,206.4,329,202.7,325,202.2z"/>
	<path fill="#043540" d="M339.5,238.2c-1.2,3.8,0.9,7.9,4.8,9.1c0.7,0.2,1.4,0.3,2.1,0.3c3.1,0,6-2,7-5.2c0.7-2.3,1.2-4.7,1.3-7
		c0-0.6,0.1-1.3,0.1-1.8c0-3.4-0.6-6.8-1.9-10.2c-1.4-3.7-5.6-5.7-9.4-4.3s-5.7,5.5-4.3,9.4c0.6,1.7,0.9,3.4,0.9,5.1v0.9
		C340.1,235.7,339.8,237,339.5,238.2z"/>
	<path fill="#043540" d="M127.1,328.4c-4.3,2-8.6,3.8-12.9,5.5c-3.8,1.4-5.6,5.6-4.1,9.4c1.1,2.9,3.8,4.7,6.8,4.7
		c0.9,0,1.8-0.2,2.7-0.5c4.6-1.8,9.3-3.8,13.8-5.9c3.7-1.7,5.2-6,3.5-9.7C135.1,328.2,130.8,326.6,127.1,328.4z"/>
	<path fill="#043540" d="M74.1,298.1c1.2,0,2.3-0.3,3.4-0.9c2.1-1.2,4.3-1.9,6.6-2.1c1-0.1,2-0.1,3,0c4.1,0.5,7.7-2.3,8.1-6.3
		c0.5-4-2.3-7.7-6.3-8.1c-2.2-0.3-4.4-0.3-6.5-0.1c-4.1,0.5-8.2,1.7-12,3.7c-3.5,2-4.8,6.3-2.9,9.8
		C69.1,296.7,71.6,298.1,74.1,298.1z"/>
	<path fill="#043540" d="M72.7,355.1c1.6,0.4,3.2,0.7,4.8,0.9c1.9,0.2,3.8,0.3,5.6,0.3c2.3,0,4.5-0.2,6.8-0.5c4-0.5,6.8-4.1,6.3-8.1
		c-0.5-4-4.1-6.8-8.1-6.3c-3,0.4-5.9,0.5-8.8,0.1c-0.9-0.2-2-0.3-2.9-0.5c-3.9-1-7.9,1.3-8.9,5.2C66.4,350.2,68.8,354.1,72.7,355.1z
		"/>
</g>
</svg>
