<?xml version="1.0" encoding="utf-8"?>
<!-- Generator: Adobe Illustrator 17.1.0, SVG Export Plug-In . SVG Version: 6.00 Build 0)  -->
<!DOCTYPE svg PUBLIC "-//W3C//DTD SVG 1.1//EN" "http://www.w3.org/Graphics/SVG/1.1/DTD/svg11.dtd">
<svg version="1.1" id="Capa_1" xmlns="http://www.w3.org/2000/svg" xmlns:xlink="http://www.w3.org/1999/xlink" x="0px" y="0px"
	 viewBox="75 0 248.2 400" enable-background="new 75 0 248.2 400" xml:space="preserve">
<g>
	<path fill="#043540" d="M209.5,394.8c0.1-0.1,0.2-0.1,0.2-0.2c18.7-19.9,82-94.4,108.3-218.5c5.3-25.2,6.5-49.3,3.6-71.8
		C312.7,36,270.4,0,199.1,0S85.5,35.9,76.5,104.2c-2.9,22.6-1.8,46.6,3.6,71.8c26,122.9,88.2,197.1,107.6,217.9
		C187.6,393.8,197.3,407.1,209.5,394.8z M97.1,107c7.6-58,41.1-86.2,102-86.2s94.5,28.2,102,86.2c2.7,20.2,1.6,41.9-3.2,64.8
		c-23.5,111.6-79.7,182.3-98.6,203.8c-19-21.5-75.1-92.3-98.6-203.8C95.5,148.9,94.4,127.2,97.1,107z"/>
	<path fill="#043540" d="M199.1,196.3c42,0,76.3-34.3,76.3-76.3s-34.3-76.1-76.3-76.1s-76.3,34.3-76.3,76.3S157,196.3,199.1,196.3z
		 M199.1,64.7c30.5,0,55.5,24.9,55.5,55.5s-24.9,55.5-55.5,55.5s-55.5-24.9-55.5-55.5S168.5,64.7,199.1,64.7z"/>
</g>
</svg>
