<?xml version="1.0" encoding="utf-8"?>
<!-- Generator: Adobe Illustrator 19.2.1, SVG Export Plug-In . SVG Version: 6.00 Build 0)  -->
<svg version="1.1" id="Capa_1" xmlns="http://www.w3.org/2000/svg" xmlns:xlink="http://www.w3.org/1999/xlink" x="0px" y="0px"
	 viewBox="0 0 512 346" style="enable-background:new 0 0 512 346;" xml:space="preserve">
<style type="text/css">
	.st0{fill:#043540;}
</style>
<path class="st0" d="M381.4,90c-3,0-6.1,0.1-9.1,0.3c-9.7-23.4-26-44.3-46.7-59.6c-25-18.5-54.8-28.3-86.2-28.3
	C160.3,2.4,96,65.4,96,142.9c0,0.8,0,1.5,0,2.3c-53.5,3.3-96,47-96,100.3C0,300.9,46,346,102.4,346h279c72,0,130.6-57.4,130.6-128
	S453.4,90,381.4,90z M381.4,315.1h-279c-39.5,0-71.6-31.2-71.6-69.7c0-38.4,32.1-69.7,71.6-69.7c2.4,0,5.1,0.2,8.5,0.6
	c4.8,0.6,9.5-1.1,12.8-4.6c3.3-3.4,4.9-8.2,4.2-13c-0.8-5.4-1.2-10.8-1.2-15.9c0-60.5,50.5-109.7,112.6-109.7
	c49.4,0,93.7,32.2,107.8,78.3c2.3,7.4,9.7,12,17.3,10.7c5.5-0.9,11.2-1.4,16.9-1.4c55,0,99.7,43.6,99.7,97.2
	C481.2,271.6,436.4,315.1,381.4,315.1z"/>
</svg>
