<?xml version="1.0" encoding="utf-8"?>
<!-- Generator: Adobe Illustrator 17.1.0, SVG Export Plug-In . SVG Version: 6.00 Build 0)  -->
<!DOCTYPE svg PUBLIC "-//W3C//DTD SVG 1.1//EN" "http://www.w3.org/Graphics/SVG/1.1/DTD/svg11.dtd">
<svg version="1.1" id="Layer_1" xmlns="http://www.w3.org/2000/svg" xmlns:xlink="http://www.w3.org/1999/xlink" x="0px" y="0px"
	 viewBox="-6 157 406 87" enable-background="new -6 157 406 87" xml:space="preserve">
<path fill="#043540" d="M41.6,161.4c-20.3,9.4-26.5,31.1-18.4,48.1c7.3,15.3,28.5,27,50.2,14.7c-8.1,13.5-29.2,19.7-45.5,13.4
	c-18-6.9-28.2-25.8-24.5-45.1C6.9,175,23.5,161.2,41.6,161.4z"/>
<path fill="#043540" d="M231.9,161.1c-17.3,8-22.6,26.5-15.7,40.9c6.2,13,24.3,23,42.8,12.6c-6.9,11.4-24.8,16.7-38.8,11.4
	c-15.3-5.8-24.1-21.9-20.8-38.4C202.3,172.6,216.4,160.8,231.9,161.1z"/>
<path fill="#043540" d="M353.6,161.1c6,0.1,13.1,4,18.6,11.4c0.9,1.3,2.5,2.5,4,2.9c10.9,3,17,14.1,13.6,25
	c-3.3,10.4-15.2,16-25.5,11.9c-1.9-0.8-3.5-0.8-5.4-0.1c-6.6,2.6-13.1,1.9-19.4-1.3c-1.6-0.8-2.8-1-4.5-0.1
	c-7.5,4.2-17,1.3-20.7-6.2c-3.9-7.8-0.7-16.9,7.4-20.4c1.9-0.9,2.9-1.8,3.5-4C327.9,168.7,338.2,161,353.6,161.1z"/>
<path fill="#043540" stroke="#FFFFFF" stroke-width="8" stroke-miterlimit="10" d="M177.4,184c6.4,0.1,13.9,4.3,19.7,12.1
	c1,1.3,2.6,2.6,4.2,3.1c11.6,3.1,18.1,15,14.5,26.5c-3.5,11.1-16.2,17-27.1,12.6c-2.1-0.8-3.7-0.9-5.8-0.1c-7,2.8-14,2-20.6-1.3
	c-1.7-0.9-3-1.1-4.8-0.1c-8,4.4-18.1,1.3-22-6.6c-4.2-8.3-0.8-17.9,7.9-21.7c2-0.9,3.1-1.9,3.6-4.2
	C150.1,192.1,161.1,183.9,177.4,184z"/>
<path fill="#043540" d="M374.3,220.1c3.2,3.8,6.2,7,8.9,10.5c1.8,2.3,1.3,4.9-0.3,7.1c-1.4,2-3.6,2.7-6,2.3
	c-2.7-0.5-4.5-2.1-4.8-4.9c-0.2-1.7-0.1-3.5,0.2-5.2C372.8,226.8,373.5,223.8,374.3,220.1z"/>
<path fill="#043540" d="M352,220c3.5,4,6.7,7.2,9.3,10.8c2.1,2.9,0.6,7-2.5,8.5c-3.5,1.6-7.3,0.3-8.5-3.3c-0.4-1.4-0.6-3.1-0.4-4.5
	C350.4,227.9,351.2,224.5,352,220z"/>
<path fill="#043540" d="M329.5,220.6c2.6,2.3,5,4.3,7.1,6.5c1.3,1.3,2.4,2.8,3.1,4.5c1.4,3.3-0.3,6.7-3.6,7.9
	c-3.5,1.2-6.7-0.3-7.8-3.8c-0.4-1.4-0.4-3-0.4-4.6c0-1.2,0.2-2.4,0.4-3.5C328.6,225.4,329.1,223.2,329.5,220.6z"/>
</svg>
